<svg xmlns="http://www.w3.org/2000/svg" xml:space="preserve" width="455.328" height="251.23199" viewBox="0 0 455.32798 251.23199"><path d="m571.404 377.404 20.808 5.976v-57.312l-20.808 6.624z" style="fill:#845aa4;fill-opacity:1;fill-rule:nonzero;stroke:none" transform="matrix(1.33333 0 0 -1.33333 -391.6 607.845)"/><path d="m535.692 359.116 5.832.432v-13.752l-5.832 1.44z" style="fill:#2380c2;fill-opacity:1;fill-rule:nonzero;stroke:none" transform="matrix(1.33333 0 0 -1.33333 -391.6 607.845)"/><path d="m545.052 371.644-11.376-3.672v13.968l11.376 8.28z" style="fill:#c5bdc5;fill-opacity:1;fill-rule:nonzero;stroke:none" transform="matrix(1.33333 0 0 -1.33333 -391.6 607.845)"/><path d="m635.196 455.884-63.792-46.368v-32.112l20.808 5.976v-57.384l42.984-13.896Z" style="fill:#39c0c3;fill-opacity:1;fill-rule:nonzero;stroke:none" transform="matrix(1.33333 0 0 -1.33333 -391.6 607.845)"/><path d="m571.404 377.404-13.32-3.816v-60.48l34.128-24.696v37.656l-20.808 6.624z" style="fill:#c499c6;fill-opacity:1;fill-rule:nonzero;stroke:none" transform="matrix(1.33333 0 0 -1.33333 -391.6 607.845)"/><path d="m567.732 379.06-20.736-6.768v24.768l20.736 17.424z" style="fill:#f7941d;fill-opacity:1;fill-rule:nonzero;stroke:none" transform="matrix(1.33333 0 0 -1.33333 -391.6 607.845)"/><path d="m555.06 372.724-19.368-5.544v-8.064l5.832.432v-13.752l13.536-3.456z" style="fill:#ffcb06;fill-opacity:1;fill-rule:nonzero;stroke:none" transform="matrix(1.33333 0 0 -1.33333 -391.6 607.845)"/><path d="m535.692 359.116-6.048-.432-.072-20.16 11.952-6.912v14.184l-5.832 1.44z" style="fill:#77a6d5;fill-opacity:1;fill-rule:nonzero;stroke:none" transform="matrix(1.33333 0 0 -1.33333 -391.6 607.845)"/><path d="M293.988 276.1h2.88v-1.296h-1.08V268.9h1.08v-1.296h-2.88zm2.88 0h.144c2.304 0 2.736-1.584 2.736-4.176 0-1.368.216-4.32-2.808-4.32h-.072v1.296c.864.144 1.08.936 1.08 2.952 0 1.512 0 2.808-1.08 2.952zM302.916 267.604l2.304 8.496h1.08v-1.728.072l-.864-3.672h.864v-1.296h-1.152l-.504-1.872zm3.384 8.496h1.296l2.304-8.496h-1.872l-.504 1.872H306.3v1.296h.864l-.864 3.6zM313.068 267.604v8.496h4.608v-1.296h-2.808v-2.088h2.592v-1.368h-2.592V268.9h2.952v-1.296zM325.164 272.716v3.384h1.8v-8.496h-1.8v3.744h-2.016v-3.744h-1.8v8.496h1.8v-3.384zM330.204 267.604l2.376 8.496h1.08v-1.728.072h-.072l-.792-3.672h.864v-1.296h-1.224l-.432-1.872zm3.456 8.496h1.224l2.304-8.496h-1.8l-.504 1.872h-1.224v1.296h.864l-.864 3.6zM340.428 267.604v8.496h2.376l2.304-5.904v5.904h1.656v-8.496h-2.304l-2.376 6.192v-6.192zM357.924 267.604v8.496h2.88l1.296-5.76h.072l1.368 5.76h2.736v-8.496h-1.728v6.552l-1.656-6.552h-1.656l-1.584 6.552v-6.552zM375.852 276.1v-6.048c0-1.224-.72-2.592-2.88-2.592-1.944 0-2.88 1.008-2.88 2.592v6.048h1.8v-5.904c0-1.08.432-1.44 1.08-1.44.792 0 1.08.504 1.08 1.44v5.904zM379.668 267.604v8.496h1.8v-7.056h2.664v-1.44zM391.62 276.1v-1.44h-1.944v-7.056h-1.8v7.056h-2.016v1.44zM394.788 276.1h1.8v-8.496h-1.8zM400.476 276.1h2.664v-1.296h-.936v-2.448h.936v-1.296h-.936v-3.456h-1.728zm2.664 0h.504c1.656 0 2.232-1.008 2.232-2.52 0-1.008-.216-2.52-2.304-2.52h-.432v1.296h.072c.504 0 .864.576.864 1.152 0 .648-.144 1.224-.936 1.296zM409.332 267.604v8.496h1.8v-7.056h2.664v-1.44zM416.892 267.604v8.496h4.68v-1.296h-2.88v-2.088h2.664v-1.368h-2.664V268.9h2.952v-1.296zM424.524 276.1h2.016l1.224-2.808 1.224 2.808h1.8l-2.088-4.176 2.16-4.32h-2.016l-1.296 2.952-1.296-2.952h-1.872l2.232 4.464zM443.604 267.46c-2.16 0-2.592 1.296-2.448 2.736h1.728c0-.792.072-1.44 1.008-1.44.648 0 .936.36.936.936 0 1.512-3.6 1.584-3.6 4.176 0 1.296.648 2.376 2.808 2.376 1.728 0 2.592-.792 2.448-2.592h-1.728c0 .648-.072 1.296-.792 1.296-.576 0-.936-.288-.936-.864 0-1.656 3.6-1.512 3.6-4.176 0-2.16-1.656-2.448-3.024-2.448M450.228 276.1h1.801v-8.496h-1.801zM455.844 267.604v8.496h2.448l2.232-5.904h.072v5.904h1.584v-8.496h-2.304l-2.304 6.192h-.072v-6.192zM465.996 271.852c0 2.232 0 4.392 2.952 4.392 1.8 0 2.52-1.008 2.448-2.808h-1.728c0 1.08-.216 1.512-.72 1.512-1.008 0-1.152-.936-1.152-3.096s.144-3.096 1.152-3.096c.792 0 .792 1.008.792 1.728h1.728c0-2.304-.864-3.024-2.52-3.024-2.952 0-2.952 2.16-2.952 4.392M474.996 267.604v8.496h4.608v-1.296h-2.88v-2.088h2.664v-1.368h-2.664V268.9h2.952v-1.296zM483.06 274.516c.576.36 1.152.72 1.584 1.296h1.584v-8.208h-1.8v6.336c-.432-.36-.864-.72-1.368-.936zM492.636 270.844c-.144-.072-.36-.072-.648-.072-1.224 0-1.728 1.152-1.728 2.232 0 1.584.504 2.88 2.376 2.88v-1.08c-.72 0-.72-1.008-.72-1.512s0-1.368.72-1.368zm-.576-1.296c0-.216 0-.432.144-.576a.486.486 0 0 1 .432-.288v-1.224c-1.44 0-2.304.504-2.232 2.088zm.576-.864c.864 0 .72.648.72 2.592-.216-.216-.432-.36-.72-.432v1.08c.72 0 .72.936.72 1.44 0 .504 0 1.44-.72 1.44v1.08c2.448 0 2.376-1.944 2.376-4.248 0-1.944 0-4.104-2.376-4.176zM499.692 272.5v-.072c.288.432.72.576 1.224.576 1.368 0 1.728-.936 1.728-2.664 0-2.232-.792-2.88-2.448-2.88-1.368 0-2.232.576-2.232 2.088h1.656c0-.216.072-.432.144-.576.072-.216.216-.288.504-.288.648 0 .72.504.72 1.656 0 .504.072 1.584-.72 1.584-.432 0-.576-.504-.576-.864h-1.584v4.752h4.248v-1.296h-2.664zM507.252 272.5l.072-.072c.216.432.648.576 1.152.576 1.368 0 1.8-.936 1.8-2.664 0-2.232-.864-2.88-2.52-2.88-1.368 0-2.232.576-2.16 2.088h1.656c0-.216 0-.432.072-.576.144-.216.288-.288.504-.288.648 0 .72.504.72 1.656 0 .504.072 1.584-.648 1.584-.504 0-.648-.504-.648-.864h-1.584v4.752h4.248v-1.296h-2.664z" style="fill:#1e418f;fill-opacity:1;fill-rule:nonzero;stroke:none" transform="matrix(1.33333 0 0 -1.33333 -391.6 607.845)"/><path d="M293.988 276.1h2.88v-1.296h-1.08V268.9h1.08v-1.296h-2.88zm2.88 0h.144c2.304 0 2.736-1.584 2.736-4.176 0-1.368.216-4.32-2.808-4.32h-.072v1.296c.864.144 1.08.936 1.08 2.952 0 1.512 0 2.808-1.08 2.952zM302.916 267.604l2.304 8.496h1.08v-1.728.072l-.864-3.672h.864v-1.296h-1.152l-.504-1.872zm3.384 8.496h1.296l2.304-8.496h-1.872l-.504 1.872H306.3v1.296h.864l-.864 3.6zM313.068 267.604v8.496h4.608v-1.296h-2.808v-2.088h2.592v-1.368h-2.592V268.9h2.952v-1.296zM325.164 272.716v3.384h1.8v-8.496h-1.8v3.744h-2.016v-3.744h-1.8v8.496h1.8v-3.384zM330.204 267.604l2.376 8.496h1.08v-1.728.072h-.072l-.792-3.672h.864v-1.296h-1.224l-.432-1.872zm3.456 8.496h1.224l2.304-8.496h-1.8l-.504 1.872h-1.224v1.296h.864l-.864 3.6zM340.428 267.604v8.496h2.376l2.304-5.904v5.904h1.656v-8.496h-2.304l-2.376 6.192v-6.192zM357.924 267.604v8.496h2.88l1.296-5.76h.072l1.368 5.76h2.736v-8.496h-1.728v6.552l-1.656-6.552h-1.656l-1.584 6.552v-6.552zM375.852 276.1v-6.048c0-1.224-.72-2.592-2.88-2.592-1.944 0-2.88 1.008-2.88 2.592v6.048h1.8v-5.904c0-1.08.432-1.44 1.08-1.44.792 0 1.08.504 1.08 1.44v5.904zM379.668 267.604v8.496h1.8v-7.056h2.664v-1.44zM391.62 276.1v-1.44h-1.944v-7.056h-1.8v7.056h-2.016v1.44zM394.788 276.1h1.8v-8.496h-1.8zM400.476 276.1h2.664v-1.296h-.936v-2.448h.936v-1.296h-.936v-3.456h-1.728zm2.664 0h.504c1.656 0 2.232-1.008 2.232-2.52 0-1.008-.216-2.52-2.304-2.52h-.432v1.296h.072c.504 0 .864.576.864 1.152 0 .648-.144 1.224-.936 1.296zM409.332 267.604v8.496h1.8v-7.056h2.664v-1.44zM416.892 267.604v8.496h4.68v-1.296h-2.88v-2.088h2.664v-1.368h-2.664V268.9h2.952v-1.296zM424.524 276.1h2.016l1.224-2.808 1.224 2.808h1.8l-2.088-4.176 2.16-4.32h-2.016l-1.296 2.952-1.296-2.952h-1.872l2.232 4.464zM443.604 267.46c-2.16 0-2.592 1.296-2.448 2.736h1.728c0-.792.072-1.44 1.008-1.44.648 0 .936.36.936.936 0 1.512-3.6 1.584-3.6 4.176 0 1.296.648 2.376 2.808 2.376 1.728 0 2.592-.792 2.448-2.592h-1.728c0 .648-.072 1.296-.792 1.296-.576 0-.936-.288-.936-.864 0-1.656 3.6-1.512 3.6-4.176 0-2.16-1.656-2.448-3.024-2.448M450.228 276.1h1.801v-8.496h-1.801zM455.844 267.604v8.496h2.448l2.232-5.904h.072v5.904h1.584v-8.496h-2.304l-2.304 6.192h-.072v-6.192zM465.996 271.852c0 2.232 0 4.392 2.952 4.392 1.8 0 2.52-1.008 2.448-2.808h-1.728c0 1.08-.216 1.512-.72 1.512-1.008 0-1.152-.936-1.152-3.096s.144-3.096 1.152-3.096c.792 0 .792 1.008.792 1.728h1.728c0-2.304-.864-3.024-2.52-3.024-2.952 0-2.952 2.16-2.952 4.392M474.996 267.604v8.496h4.608v-1.296h-2.88v-2.088h2.664v-1.368h-2.664V268.9h2.952v-1.296zM483.06 274.516c.576.36 1.152.72 1.584 1.296h1.584v-8.208h-1.8v6.336c-.432-.36-.864-.72-1.368-.936zM492.636 270.844c-.144-.072-.36-.072-.648-.072-1.224 0-1.728 1.152-1.728 2.232 0 1.584.504 2.88 2.376 2.88v-1.08c-.72 0-.72-1.008-.72-1.512s0-1.368.72-1.368zm-.576-1.296c0-.216 0-.432.144-.576a.486.486 0 0 1 .432-.288v-1.224c-1.44 0-2.304.504-2.232 2.088zm.576-.864c.864 0 .72.648.72 2.592-.216-.216-.432-.36-.72-.432v1.08c.72 0 .72.936.72 1.44 0 .504 0 1.44-.72 1.44v1.08c2.448 0 2.376-1.944 2.376-4.248 0-1.944 0-4.104-2.376-4.176zM499.692 272.5v-.072c.288.432.72.576 1.224.576 1.368 0 1.728-.936 1.728-2.664 0-2.232-.792-2.88-2.448-2.88-1.368 0-2.232.576-2.232 2.088h1.656c0-.216.072-.432.144-.576.072-.216.216-.288.504-.288.648 0 .72.504.72 1.656 0 .504.072 1.584-.72 1.584-.432 0-.576-.504-.576-.864h-1.584v4.752h4.248v-1.296h-2.664zM507.252 272.5l.072-.072c.216.432.648.576 1.152.576 1.368 0 1.8-.936 1.8-2.664 0-2.232-.864-2.88-2.52-2.88-1.368 0-2.232.576-2.16 2.088h1.656c0-.216 0-.432.072-.576.144-.216.288-.288.504-.288.648 0 .72.504.72 1.656 0 .504.072 1.584-.648 1.584-.504 0-.648-.504-.648-.864h-1.584v4.752h4.248v-1.296h-2.664zM403.932 326.86v-29.376h10.08v10.44h8.712v9h-8.712v9.936zM368.94 299.14h-9.288v-16.56h57.24v9h-47.16v7.56zM319.332 316.42v9H293.7v-41.472h28.08v9h-17.928v23.472zM350.94 326.86h-9.216v-17.568h-5.04v17.568h-10.152v-44.64h10.152v18h5.04v-18h10.08v44.64zM482.484 300.004h-54.936v-8.928h45.72V281.5h10.08v18.504zM466.284 312.82h-40.968v-9h60.192v9h-9.144v14.976h-41.616v-9h31.536z" style="fill:#231f20;fill-opacity:1;fill-rule:nonzero;stroke:none" transform="matrix(1.33333 0 0 -1.33333 -391.6 607.845)"/><path d="M373.764 331.18v-5.688h-14.112v-9h6.984c-.72-1.656-1.152-3.528-1.152-5.328 0-7.344 5.976-13.248 13.32-13.248v9c-2.376 0-4.32 1.872-4.32 4.248 0 2.376 1.944 4.248 4.32 4.248v15.768zm5.04-33.264c7.272 0 13.248 5.904 13.248 13.248 0 1.8-.36 3.672-1.08 5.328h6.912v9h-14.04v5.688h-5.04v-15.768c2.304 0 4.248-1.872 4.248-4.248 0-2.376-1.944-4.248-4.248-4.248zM542.748 326.86h-9.288v-27.576h10.152v8.64h8.784v9h-8.784v9.936zM524.388 325.708H489.9v-9h9.36a3287.185 3287.185 0 0 1-11.088-8.856l6.48-7.704s11.952 10.008 12.96 10.8c1.008-.792 12.888-10.8 12.888-10.8l6.48 7.704s-8.352 6.696-11.016 8.856h9.288v9z" style="fill:#231f20;fill-opacity:1;fill-rule:nonzero;stroke:none" transform="matrix(1.33333 0 0 -1.33333 -391.6 607.845)"/><path d="M511.716 287.548c0-7.344 5.976-13.32 13.248-13.32v9c-2.304 0-4.248 1.944-4.248 4.32 0 2.304 1.944 4.248 4.248 4.248v8.928c-7.272 0-13.248-5.904-13.248-13.176m13.248-13.32h.072c7.272 0 13.248 5.976 13.248 13.32s-5.976 13.176-13.248 13.176h-.072v-8.928h.072c2.304 0 4.248-1.944 4.248-4.248 0-2.376-1.944-4.32-4.248-4.32h-.072z" style="fill:#231f20;fill-opacity:1;fill-rule:nonzero;stroke:none" transform="matrix(1.33333 0 0 -1.33333 -391.6 607.845)"/></svg>